<?xml version="1.0" encoding="UTF-8" standalone="no"?>
<!-- Created with Inkscape (http://www.inkscape.org/) -->

<svg
   xmlns:osb="http://www.openswatchbook.org/uri/2009/osb"
   xmlns:dc="http://purl.org/dc/elements/1.1/"
   xmlns:cc="http://creativecommons.org/ns#"
   xmlns:rdf="http://www.w3.org/1999/02/22-rdf-syntax-ns#"
   xmlns:svg="http://www.w3.org/2000/svg"
   xmlns="http://www.w3.org/2000/svg"
   xmlns:sodipodi="http://sodipodi.sourceforge.net/DTD/sodipodi-0.dtd"
   xmlns:inkscape="http://www.inkscape.org/namespaces/inkscape"
   id="svg2816"
   version="1.1"
   inkscape:version="0.91 r13725"
   width="925"
   height="925"
   sodipodi:docname="ausmap.svg"
   inkscape:export-filename="C:\Users\danie\Downloads\ausmap_logo.png"
   inkscape:export-xdpi="12.454054"
   inkscape:export-ydpi="12.454054">
  <metadata
     id="metadata2822">
    <rdf:RDF>
      <cc:Work
         rdf:about="">
        <dc:format>image/svg+xml</dc:format>
        <dc:type
           rdf:resource="http://purl.org/dc/dcmitype/StillImage" />
        <dc:title></dc:title>
      </cc:Work>
    </rdf:RDF>
  </metadata>
  <defs
     id="defs2820">
    <linearGradient
       id="linearGradient4236"
       osb:paint="solid">
      <stop
         style="stop-color:#5dcae8;stop-opacity:1;"
         offset="0"
         id="stop4238" />
    </linearGradient>
    <inkscape:perspective
       sodipodi:type="inkscape:persp3d"
       inkscape:vp_x="0 : 0.5 : 1"
       inkscape:vp_y="0 : 1000 : 0"
       inkscape:vp_z="1 : 0.5 : 1"
       inkscape:persp3d-origin="0.5 : 0.33333333 : 1"
       id="perspective2824" />
    <linearGradient
       id="SVGID_5_"
       gradientUnits="userSpaceOnUse"
       x1="188.7529"
       y1="250.2354"
       x2="186.5125"
       y2="102.9362"
       gradientTransform="matrix(3.7400524,0,0,3.7400524,-30.601943,-22.532995)">
      <stop
         offset="0"
         style="stop-color:#589632"
         id="stop36" />
      <stop
         offset="1"
         style="stop-color:#93B023"
         id="stop38" />
    </linearGradient>
    <linearGradient
       id="SVGID_4_"
       gradientUnits="userSpaceOnUse"
       x1="234.4702"
       y1="250.03419"
       x2="232.211"
       y2="101.4977">
      <stop
         offset="0"
         style="stop-color:#589632"
         id="stop27" />
      <stop
         offset="1"
         style="stop-color:#93B023"
         id="stop29" />
    </linearGradient>
    <linearGradient
       id="SVGID_5_-6"
       gradientUnits="userSpaceOnUse"
       x1="188.7529"
       y1="250.2354"
       x2="186.5125"
       y2="102.9362"
       gradientTransform="matrix(3.9405662,0,0,3.9405662,-437.11912,-52.260427)">
      <stop
         offset="0"
         style="stop-color:#589632"
         id="stop36-7" />
      <stop
         offset="1"
         style="stop-color:#93B023"
         id="stop38-9" />
    </linearGradient>
    <linearGradient
       id="SVGID_4_-5"
       gradientUnits="userSpaceOnUse"
       x1="234.4702"
       y1="250.03419"
       x2="232.211"
       y2="101.4977">
      <stop
         offset="0"
         style="stop-color:#589632"
         id="stop27-7" />
      <stop
         offset="1"
         style="stop-color:#93B023"
         id="stop29-0" />
    </linearGradient>
  </defs>
  <sodipodi:namedview
     pagecolor="#ffffff"
     bordercolor="#666666"
     borderopacity="1"
     objecttolerance="10"
     gridtolerance="10"
     guidetolerance="10"
     inkscape:pageopacity="0"
     inkscape:pageshadow="2"
     inkscape:window-width="958"
     inkscape:window-height="1008"
     id="namedview2818"
     showgrid="false"
     inkscape:zoom="0.8044088"
     inkscape:cx="583.63985"
     inkscape:cy="481.6054"
     inkscape:window-x="953"
     inkscape:window-y="0"
     inkscape:window-maximized="0"
     inkscape:current-layer="svg2816"
     showguides="true" />
  <path
     style="fill:#00008b;fill-opacity:1;stroke:#000000;stroke-width:0.99937612px;stroke-linecap:butt;stroke-linejoin:miter;stroke-opacity:1"
     d="m 287.30164,79.180348 3.38442,-1.60197 3.20628,-1.42399 3.02815,-0.88998 3.02817,-0.53399 4.27505,0 3.56253,1.06799 4.27505,2.49195 4.45317,4.09395 3.56254,4.27193 2.49378,4.80593 2.13752,4.44993 3.9188,5.161902 4.09691,2.13597 6.94696,1.60198 8.72821,-0.53399 8.01572,-0.534 4.27504,0 2.49377,-0.88998 0.89064,-0.71199 0.35626,-4.093922 -0.53438,-3.02596 -1.06876,-2.13596 c 0,0 -0.53438,-1.06799 -1.24689,-1.06799 -0.71251,0 -2.85003,-0.53399 -2.85003,-0.53399 l -1.78127,-0.71199 -0.7125,-2.13597 0.7125,-6.0519 1.42502,-3.91594 2.49377,-4.62794 3.74066,-4.62792 2.49378,-3.20396 0.71251,-1.95798 1.60314,-0.88999 3.74066,-0.35599 2.49378,0.17799 1.60314,0 0.89064,-1.24598 -0.89064,-2.49196 -1.60314,-3.55993 -0.17812,-4.09395 0.7125,-3.73794 1.60315,-3.55995 3.56254,-3.55994 5.3438,-3.20395 7.48134,-1.77998 6.23444,-0.88998 7.3032,-0.712 5.16568,-0.53399 7.12508,-0.71198 6.23444,-1.06799 4.45318,-2.66996 2.85003,-3.73794 1.06876,-3.55996 -0.35625,-4.44993 -1.2469,-2.49195 -2.13752,-2.66997 -2.49377,-2.13596 -1.95941,-0.7120001 -3.02815,0.178 -2.13752,-0.178 -1.24689,-1.06798 0.17813,-2.31397 1.78126,-2.13597 1.9594,-1.60197 2.49377,-0.53399 2.67192,0.53399 4.98755,2.66996 5.70006,4.44993 3.56253,1.9579701 2.31567,2.49197 1.06876,1.06799 1.42501,0 0.89063,-2.31398 -0.17812,-3.0259501 -0.35626,-2.49196 1.24689,-0.534 1.42502,1.06799 1.42501,2.8479501 1.24689,2.31398 0.35626,1.42397 1.60313,1.06798 3.38442,0 2.6719,1.06799 5.16568,2.31396 4.09692,2.13597 4.09692,0.53399 17.27831,0.17801 1.24689,0.17799 0.89063,1.95798 1.06876,2.84795 2.31566,2.13597 3.02816,1.24598 4.45317,0.178 5.52193,0.178 3.02816,0.35599 2.49379,0.35599 1.24688,-1.06798 0.35626,-1.24598 2.31565,-0.71199 2.49377,0.178 1.9594,0.17799 0.53438,1.06799 0.53438,2.84795 0.7125,2.31397 2.13752,0.88999 1.9594,0.35599 1.9594,-0.17799 1.42502,-0.53399 1.06876,-2.13597 0.71251,-2.13597 1.42501,-1.06799 2.67191,-1.06798 2.6719,-0.178 2.49378,0.71199 2.13752,1.06799 1.24689,1.60197 0.17812,3.02596 -0.7125,5.33991 -0.53438,5.87391 -1.06877,5.69592 0,1.60197 -0.7125,1.06799 -0.89064,0.88999 -3.74066,0.356 -7.83758,-0.356 -4.63131,0 -2.13752,0.356 -1.06876,1.42397 -1.78127,8.89987 -1.78127,8.72187 -3.20628,6.2299 -5.34382,7.1199 -4.45317,4.62793 -2.85003,2.31396 -1.42501,1.24599 0.35625,1.24598 4.09692,-0.71198 5.16567,0.71198 6.41258,1.77996 7.83759,3.381942 16.03142,9.78986 8.37197,5.69591 6.05631,3.73795 7.83758,3.38195 7.30321,2.66996 6.05631,3.20395 4.09693,3.38195 5.3438,4.98393 5.70007,4.27193 3.74066,2.84796 3.74067,1.77997 1.95939,1.06799 0.71252,3.02596 2.85003,5.69591 2.31564,2.84795 4.6313,3.02596 4.98755,1.24598 10.50949,0 8.37197,-0.17799 4.45318,-0.178 1.06876,-0.53399 1.06876,-3.55995 1.24688,-6.5859 1.9594,-7.83189 3.74067,-8.36587 3.56253,-8.54388 2.49379,-7.65388 1.06876,-7.83188 0.7125,-10.50185 0.17814,-11.925802 3.38441,-23.67365 0.89063,-7.2979 0.35625,-5.51791 0,-3.55995 1.06876,-1.77997 0.89064,-0.71199 2.31565,-0.35599 1.60314,-0.712 0.35625,-1.95797 0.89063,-9.43385 1.42502,-8.54387 2.85004,-7.47589 2.31565,-5.87392 2.85003,-5.8739101 1.24688,-3.38195 1.06877,-2.49197 0.7125,-1.42397 1.9594,-1.06798005 3.91879,0.17799 3.02817,1.95798005 2.6719,3.73794 2.13752,5.6959101 0.89063,5.69592 0.35626,4.09393 0,4.44995 0.35626,1.60197 0.89062,0.53399 3.20629,-0.35599 2.85003,-0.178 1.06877,0.178 1.425,0.17799 0.35626,1.60198 -0.89064,2.31396 -0.7125,2.13598 0,5.16192 0.35625,3.73793 1.9594,5.33992 2.67191,6.40791 3.20628,7.47588 1.9594,5.87392 1.24689,6.22991 0.35625,6.9419 0,5.87391 0.17813,3.02596 0.53438,1.95796 1.95939,0.534 4.27504,0 3.56255,-0.88998 c 0,0 2.49378,-0.356 3.20629,-0.356 0.7125,0 4.27504,-0.178 4.27504,-0.178 l 3.38441,0.88998 2.6719,2.13597 2.85004,3.91595 3.20628,5.695892 3.38441,5.51792 1.42502,3.20395 0.89064,4.98392 0.17812,7.2979 0.89064,9.61186 0.7125,5.16192 0.53438,3.73794 2.13752,4.98393 2.31565,2.31397 1.95941,2.31396 3.74066,1.24598 1.42501,1.77997 1.2469,6.05192 0.7125,7.65389 0.17812,14.41777 0.53439,8.54388 1.78127,8.18788 3.74066,6.22991 4.80943,6.2299 6.05631,5.33992 4.09692,2.49197 3.38441,1.06798 2.67191,0 1.06877,0.178 0.89063,1.60197 0.89063,4.98393 1.60314,1.95797 3.56254,2.13597 5.87819,3.38195 4.45318,2.84796 3.91879,4.27194 3.74066,5.33992 3.02816,7.83189 4.80943,10.32385 4.80943,9.07786 3.38441,7.83188 3.56253,8.89987 1.9594,8.54387 -0.35626,2.66996 0.53438,1.42399 1.06877,-0.534 0.35625,-3.02596 0.71251,-2.49195 1.42502,-0.53399 2.49379,0.71198 1.24688,1.42397 1.60314,4.44995 1.60314,4.09393 1.24689,3.20395 0.7125,1.77997 1.78128,0.356 1.06876,-3.20395 -0.53438,-5.69591 0.35625,-4.27194 0.53438,-1.60198 2.31565,-0.53399 1.95939,0 1.06876,1.06799 0.53438,3.73794 0.17813,12.10382 0.71251,7.47589 1.2469,7.65388 2.13752,6.76391 2.6719,4.27192 3.91879,4.27194 3.20628,4.09395 4.45317,5.87391 6.23446,10.14584 5.3438,8.18789 4.09691,4.98392 4.27506,3.91594 2.13752,1.06799 2.31565,0.17799 c 0,0 1.60314,-0.17799 1.60314,-1.06798 0,-0.88998 0.17813,-2.66997 0.17813,-2.66997 0,0 0.17813,-2.84795 0.89063,-3.20394 0.71252,-0.356 1.78128,-1.77998 1.78128,-1.77998 l 3.02815,-1.06798 3.38441,0 1.78128,1.06798 0.53438,1.24599 -1.06876,2.84795 -1.2469,3.55995 -0.53439,3.55995 -1.78126,4.80593 -3.38441,2.31396 -2.31564,0.17799 -1.60315,0.17801 c 0,0 -1.24689,-0.17801 -1.42501,0.71198 -0.17813,0.88999 -1.24689,4.27194 -1.24689,4.27194 l 0.7125,6.9419 0.71251,15.12978 -0.35625,14.77377 0.89063,11.74783 0.71251,5.87391 -0.71251,10.50184 -1.24689,9.61186 -3.02815,9.61186 -3.74067,11.21383 -3.9188,8.18788 -2.6719,5.87391 -1.60314,6.22992 -1.60314,12.10382 -1.06876,9.61186 -1.42502,7.11989 -3.20628,6.9419 -7.3032,6.2299 -8.01571,5.51793 -5.34382,3.91594 -5.16568,4.80593 -3.02815,4.09393 -2.49378,4.62794 -2.49377,6.2299 -2.31566,7.11989 -3.9188,8.00988 -6.23444,8.36588 -3.38441,4.62793 -3.56253,4.98392 -2.85005,6.9419 -5.52193,6.9419 -6.05631,5.33992 -4.27505,4.62794 -2.13752,3.55994 -0.17813,6.22991 0.17813,6.5859 -1.42501,8.18788 -1.9594,6.76389 -2.13752,4.27194 -4.45317,4.80593 -7.12509,2.31396 -10.33135,0.17801 -13.53765,0.53399 -9.44073,1.60198 -7.3032,2.13596 -7.83759,4.44994 -3.9188,2.31396 -2.85002,0.356 -2.49378,0.71198 -1.24689,2.13597 -0.53438,4.98393 -0.17813,1.77998 -1.42501,0.88998 -3.38441,0 -6.05633,-2.13597 -5.52193,-1.06799 c 0,0 -1.60314,-0.71198 -1.60314,-1.42397 0,-0.71199 0,-3.91595 0,-3.91595 l -1.60314,-4.44993 -2.31565,-2.31396 -1.78127,-0.88999 -1.06876,1.60197 0.17813,4.62794 0.17812,3.91594 -0.7125,1.06798 -1.9594,-0.53399 -3.20629,-2.49197 -3.38441,-2.66995 -2.13753,-2.31397 0.53438,-0.71199 2.67191,0 0.89064,-1.95797 0.35625,-3.91594 -1.06876,-2.84795 -3.02816,-4.62794 -1.06876,-0.53399 -1.9594,1.77998 -0.17812,6.05191 0.17812,4.80593 -1.95939,3.73794 -3.56254,2.49196 -1.9594,1.60197 -12.46888,0 -9.44073,-0.53399 -2.67191,-1.60197 c 0,0 -3.02815,-3.91594 -3.74066,-4.44994 -0.71251,-0.53399 -3.56253,-1.06798 -4.27505,-1.60197 -0.7125,-0.53399 -3.38441,-0.356 -4.27504,-0.71199 -0.89064,-0.356 -6.94695,-0.356 -6.94695,-0.356 l -3.38442,-0.17799 -6.94695,-2.84797 -5.52194,-3.20395 -5.34379,-2.13596 -5.52195,-0.53399 c 0,0 -4.98755,0.35599 -5.87818,-0.178 -0.89064,-0.534 -5.34381,-2.31397 -5.34381,-2.31397 l -5.70006,-6.5859 -1.60315,-4.98392 0.35626,-7.6539 0.17812,-9.61185 0.35626,-9.43386 -2.13753,-6.5859 c 0,0 -2.85002,-3.02596 -3.56254,-3.55995 -0.7125,-0.53398 -4.09691,-2.13596 -4.09691,-2.13596 l -4.6313,-1.24599 -2.67191,-2.13597 -0.17813,-1.60197 0,-2.66997 0.35627,-2.13596 -0.71253,-0.71199 -1.60314,0.71199 -5.52193,3.38195 -3.02816,1.77997 c 0,0 -2.13751,1.06799 -3.20627,1.06799 -1.06876,0 -3.91881,0.17799 -4.63131,0.17799 -0.71251,0 -3.56254,-0.35599 -3.56254,-0.35599 l -0.71251,-1.24598 -0.17812,-3.55995 0.17812,-4.09394 0.35626,-1.95796 2.6719,-1.77998 2.31566,-2.66997 1.06876,-3.73794 -0.35626,-5.69591 -0.53438,-5.33992 -0.17812,-4.98393 -0.53439,-3.02596 -1.24689,-1.42397 -2.49378,-0.71199 -2.31564,0.88999 -1.24689,0.53399 -0.89064,2.13597 0.35626,5.16191 -0.71251,4.44995 -0.71251,3.91594 -1.60314,2.66996 -1.9594,2.49195 -3.38441,1.77998 -3.20629,0.534 -6.59069,0.35598 -3.38441,-0.17799 -0.89064,-1.42398 0.53438,-2.49196 3.02816,-2.84795 3.91879,-3.91595 4.45317,-3.55994 4.80944,-5.16193 2.85002,-3.91594 2.67191,-5.69592 1.9594,-7.47588 0.53438,-6.40791 -0.35626,-6.9419 0.53438,-5.87391 -0.35626,-4.27194 -0.35624,-3.02595 -1.42502,-0.53399 -1.24689,2.31396 -3.20628,6.05191 -4.6313,6.40791 -8.90635,10.67984 -3.74066,4.62793 -6.41258,5.87391 -4.27505,3.38195 -2.49377,1.77998 -1.78127,2.31396 -1.78127,2.49196 -0.53438,3.02596 0.35626,4.09394 0,3.20395 -1.42502,1.24598 -3.91879,0.178 -4.27505,-3.02595 -4.45317,-4.98394 -3.56254,-8.00987 -2.31565,-9.25587 -1.9594,-7.83188 -2.85003,-5.69592 -5.52193,-5.69591 -4.09693,-1.60198 -4.27504,-0.17799 -1.78127,-1.06798 -1.06876,-2.49197 1.2469,-2.84796 c 0,0 1.06875,-0.71198 2.13751,-1.60197 1.06876,-0.88999 2.6719,-1.24598 2.6719,-1.24598 l 1.42502,-0.712 0.71251,-1.77997 0.17813,-2.66996 -1.2469,-1.06798 -3.3844,-0.71199 -2.49377,0.17799 -2.31567,-0.53399 c 0,0 -1.06876,-1.24598 -1.24688,-1.95797 -0.17813,-0.71199 0,-4.09394 0,-4.09394 l -0.35626,-1.95797 -3.56253,-0.71199 -6.23445,-0.17799 -6.05632,-2.13597 -6.76881,-0.88999 -9.61885,0.356 -5.8782,0 -3.38441,-1.06799 -2.13752,-1.95797 -0.71251,-2.31396 0.17813,-3.38195 c 0,0 0.7125,-1.42398 0,-2.13597 -0.71252,-0.712 -1.9594,-2.13597 -1.9594,-2.13597 l -5.16568,-2.31397 -6.05632,-1.42397 -5.3438,0.17799 -6.59071,0.356 -4.27505,1.06798 -9.26259,2.49196 -14.78454,5.87391 -8.37196,4.09395 -8.55009,3.91594 -8.72823,2.66996 -6.76882,1.06798 -9.44072,0 -4.98756,0.356 -3.02816,1.60198 -3.02816,3.38194 c 0,0 -1.24688,2.31397 -2.13752,2.31397 -0.89063,0 -8.72822,1.95797 -8.72822,1.95797 l -12.11263,1.95797 -9.79698,3.55995 -10.68762,4.27193 -8.90634,5.16192 -6.23445,3.73795 -3.38441,4.27194 -2.49378,4.98392 -2.49377,4.62793 -1.2469,2.66997 -1.06876,1.60197 -4.63129,1.60198 -8.90636,2.31396 c 0,0 -9.61884,0.71199 -11.22198,0.88999 -1.60314,0.178 -12.29077,0.178 -12.29077,0.178 l -7.83758,-0.71199 -9.26261,0.53399 -6.94694,0.88998 -9.2626,3.55995 -12.64702,5.69591 -6.76882,5.69592 -4.6313,3.38195 -2.85003,2.84796 -3.20629,4.80593 -3.91879,5.16192 -3.74066,2.66996 -3.38441,1.42398 -6.76883,0.178 -18.34708,0.17799 -6.23443,-0.17799 -8.01572,-1.77998 -5.52193,-3.91594 -6.056318,-4.62792 -3.028162,-1.95798 -6.946942,-0.53399 -5.878191,-3.02596 -2.671904,-2.84796 -0.712505,-2.13596 0.178124,-6.05191 0.178134,-3.02596 c 0,0 -0.534382,-1.42397 0.178123,-2.13596 0.712504,-0.712 4.096924,-2.49197 4.096924,-2.49197 0,0 1.95939,-0.356 2.671895,-0.88999 0.712514,-0.53399 3.206285,-1.95796 3.206285,-1.95796 l 1.9594,-2.49197 0,-6.9419 -0.178124,-4.62792 -1.246895,-2.66996 -1.246885,-3.02596 0.178123,-5.33993 0.178134,-9.25586 -0.356257,-7.83188 0,-1.60197 -1.246886,-2.66996 -5.34381,-6.05191 -4.809427,-4.62794 -3.918791,-3.55994 -3.028162,-3.20395 -1.068762,-2.49197 -1.246886,-3.73794 c 0,0 -0.356257,-4.27195 -0.890638,-5.16193 -0.534381,-0.88999 -2.137523,-5.16193 -2.137523,-5.16193 0,0 -2.137525,-3.02596 -2.850009,-3.73794 -0.712514,-0.71199 -4.631295,-5.16192 -4.631295,-5.16192 l -3.028211,-3.20396 -1.246876,-1.95797 c 0,0 -1.068722,-2.31396 -0.890669,-3.02596 0.178155,-0.71199 0.534462,-4.98392 0.534462,-4.98392 l -0.534462,-3.73795 -1.603082,-1.60197 -3.918781,-1.77998 -4.275087,-2.84795 -2.671905,-2.31396 -2.493751,-2.84797 -1.603183,-3.55994 -0.53436,-4.80593 -0.178154,-4.09394 0.712514,-2.66996 -0.53436,-1.24598 -3.206266,-0.178 c 0,0 -2.137544,-0.53399 -3.028213,-0.88999 -0.890567,-0.35599 -2.315597,-1.24598 -2.315597,-1.24598 l -1.95939,-3.02595 0,-3.91594 0,-2.84796 -0.890668,-2.31397 -1.781237,-2.13597 -5.700116,-4.09393 -6.5906851,-6.9419 -3.7406266,-4.44993 -2.1375437,-2.31397 -0.71251569,-1.95797 -0.17815364,-2.13597 1.60318393,-1.60198 3.0282119,-0.17799 3.3843194,1.42397 3.2063655,4.27194 4.809349,4.44993 4.096933,3.02596 3.028213,0.88999 2.49375,-0.356 0.890669,-1.60197 0.178054,-3.91594 -0.178054,-5.69592 c 0,0 -0.178155,-2.49196 -0.534462,-3.20396 -0.356207,-0.71198 0,-0.71198 -1.781236,-1.77997 -1.781237,-1.06798 -3.562573,-1.42398 -3.562573,-1.42398 l -2.671904,0.178 -1.603083,-1.24598 0.356207,-12.28181 -0.178054,-1.06799 -1.95939,-1.42398 -2.493851,-0.35599 -4.2749872,-2.84796 -3.5625729,-5.51792 -2.4937511,-5.87391 -0.8906682,-3.20396 1.4250291,-3.38195 2.3156974,-4.62792 0.534361,-4.62794 0.5343609,-9.25586 -0.1781536,-18.33373 0,-8.18787 0.5343609,-5.87392 0.3563073,-2.66996 0.534361,-1.77997 0.8906682,-0.178 1.6030827,0.71199 1.4250295,3.73795 1.246875,4.62792 1.603183,2.49197 1.246875,0.178 1.603183,-2.31397 0.890568,-4.27194 2.315698,-6.22991 3.740627,-7.47588 9.618896,-9.07787 7.481354,-8.89987 4.631294,-4.44993 6.234379,-4.80593 7.303199,-3.91594 6.946982,-1.77997 8.193838,0 6.234448,-1.42398 c 0,0 4.631294,-2.49196 5.343809,-2.84796 0.712504,-0.356 4.096914,-3.73794 4.096914,-3.73794 l 4.809418,-3.20396 5.521933,-1.60197 4.98756,-2.84796 4.45318,-4.27193 2.13752,-3.20396 3.91879,-4.09393 5.16568,-2.84797 4.27505,-1.06798 5.70006,-0.17799 7.3032,-0.534 9.08448,-1.95797 7.3032,-1.95797 7.12509,-4.27194 7.65945,-5.87392 8.01571,-9.61186 4.45318,-5.69591 3.56254,-7.83189 1.78126,-6.94189 0.53438,-8.89987 0.17813,-9.61186 0.89064,-7.29788 3.02815,-7.2979 3.56254,-4.98392 3.02817,-3.38195 2.13752,-2.13597 1.78126,-0.178 1.78127,1.60197 4.09692,5.51793 2.85003,2.66996 3.02817,2.66996 1.95939,1.42397 c 0,0 0.7125,0.88999 1.24688,0 0.53438,-0.88999 1.06876,-1.77997 1.06876,-1.77997 l 0.35626,-6.7639 -0.89064,-11.21383 0.17814,-3.73794 1.60314,-1.77998 4.63129,-0.35599 6.94695,0.35599 3.9188,0 1.60314,-0.88998 0.71251,-4.09395 0.17813,-5.87391 -0.35626,-2.66996 -1.95939,-0.71199 -2.13752,0 -1.78129,-0.71199 c 0,0 -0.35624,-1.42398 0.17815,-2.31396 0.53438,-0.88999 3.3844,-3.55995 3.3844,-3.55995 l 3.02816,-3.38195 1.95939,-3.55995 0.89064,-2.13597 c 0,0 0.35626,-0.71198 1.06876,-1.42397 0.71251,-0.712 3.02815,-0.88999 3.02815,-0.88999 l 6.94696,0.53399 3.20628,0 1.78127,-1.06798 0.17813,-5.51792 -0.17813,-3.55995 c 0,0 -0.17812,-1.601972 0.53438,-2.135962 0.71252,-0.53398 1.78128,-1.60196 2.49378,-1.60196 0.7125,0 3.56254,0.35599 3.56254,0.35599 l 3.9188,0.534 1.42502,-1.06799 0,-3.02596 0.17812,-3.73794 3.20629,-2.84796 4.98754,-3.38195 9.97511,-5.33992 z"
     id="path2830"
     inkscape:connector-curvature="0" />
  <path
     style="fill:#00008b;fill-opacity:1;stroke:#000000;stroke-width:0.99937612px;stroke-linecap:butt;stroke-linejoin:miter;stroke-opacity:1"
     d="m 377.60832,6.6699379 2.26719,-2.13966 2.39314,-0.88105 3.02291,0 2.64505,0.88105 4.28247,0.88104 5.29009,0.12586 4.03055,-0.25173 3.02291,-1.38449 c 0,0 1.1336,-1.13277 1.63742,-1.25864 0.50381,-0.12585 1.63741,-0.25172 1.63741,-0.25172 l 1.88933,0.50346 1.13359,1.51035 0.12596,3.52417 0.12596,2.5172601 -0.88169,1.76208 -2.01529,2.13967 -1.88932,0.75519 c 0,0 -1.25954,0.37759 -1.88931,0.37759 -0.62978,0 -2.01528,0.37758 -2.01528,0.37758 l -1.63741,1.3845 -3.40077,1.88795 -2.26719,0.75517 -2.26719,0.12587 -1.88933,-0.12587 c 0,0 -1.88932,-0.75517 -2.39314,-1.38449 -0.50381,-0.62932 -2.39314,-3.14658 -2.39314,-3.14658 l -2.14122,-1.63621 -3.02292,-1.51037 -2.39314,-2.01381 -1.00764,-2.3914001 0,-1.13277 z"
     id="path2832"
     inkscape:connector-curvature="0" />
  <path
     style="fill:#00008b;fill-opacity:1;stroke:#000000;stroke-width:0.99937612px;stroke-linecap:butt;stroke-linejoin:miter;stroke-opacity:1"
     d="m 532.15481,66.454928 -2.01528,0 -1.00763,-0.75518 0,-1.76208 0.50382,-1.25864 0.75573,-0.62931 1.3855,0.25173 0.75573,1.38449 0.2519,1.76209 -0.62977,1.0069 z"
     id="path2834"
     inkscape:connector-curvature="0" />
  <path
     style="fill:#00008b;fill-opacity:1;stroke:#000000;stroke-width:0.99937612px;stroke-linecap:butt;stroke-linejoin:miter;stroke-opacity:1"
     d="m 536.43728,71.867038 0,-3.14658 0.88168,-2.01381 1.38551,-1.88794 1.3855,-0.88104 2.14123,-0.12587 1.51146,0.25172 2.01527,0.62932 1.25954,0.75519 0.62978,1.13276 -0.37786,1.00691 -1.1336,1.13276 -0.75572,1.3845 -0.25191,1.76208 0.75573,1.38449 1.13358,1.25864 1.1336,0.88104 0.62977,1.13277 -0.12595,2.01381 c 0,0 -0.12596,1.38449 -0.62978,1.51036 -0.50382,0.12586 -1.00764,0.62931 -1.51146,0.62931 -0.50381,0 -3.02291,-0.12586 -3.02291,-0.12586 l -2.89695,-1.38449 -2.39314,-1.76209 -1.63741,-2.26553 -0.25191,-2.26554 0.12595,-1.00691 z"
     id="path2836"
     inkscape:connector-curvature="0" />
  <path
     style="fill:#00008b;fill-opacity:1;stroke:#000000;stroke-width:0.99937612px;stroke-linecap:butt;stroke-linejoin:miter;stroke-opacity:1"
     d="m 602.94258,138.16836 1.42503,-2.13597 2.76096,-1.24599 1.78127,-1.06797 2.04846,-0.80099 1.51407,-0.53399 1.60315,-0.267 1.24689,0.267 0.89063,0.71198 -0.53438,1.33498 -1.24689,0.71199 -2.13752,1.24598 -1.9594,0.62299 -1.51407,0.97898 -1.9594,1.15699 -1.15782,0.53399 -1.42502,0.178 -1.24689,-0.267 -0.53439,-0.71199 0.44532,-0.71198 z"
     id="path2838"
     inkscape:connector-curvature="0" />
  <path
     style="fill:#00008b;fill-opacity:1;stroke:#000000;stroke-width:0.99937612px;stroke-linecap:butt;stroke-linejoin:miter;stroke-opacity:1"
     d="m 759.4271,732.50154 -0.17813,-1.69098 0.0891,-1.51298 0.80157,-0.97898 0.9797,0 1.51408,0.35599 1.9594,2.66996 1.51408,2.40296 1.06876,2.04697 0.9797,1.42398 1.06876,0.534 0.35625,1.06798 -0.97969,0.97898 -1.33595,0.97899 -0.62345,0.71199 -1.06876,0.44499 c 0,0 -1.15782,0.089 -1.51408,-0.089 -0.35626,-0.17801 -0.9797,-0.53399 -0.9797,-0.97899 0,-0.44499 0.26719,-1.95797 0.26719,-1.95797 0,0 -0.0891,-0.71199 -0.26719,-1.06798 -0.17813,-0.356 -0.80157,-1.69098 -0.80157,-1.69098 l -0.9797,-1.42398 -0.9797,-1.06798 -0.53438,-0.445 -0.35625,-0.71198 z"
     id="path2840"
     inkscape:connector-curvature="0" />
  <path
     style="fill:#00008b;fill-opacity:1;stroke:#000000;stroke-width:0.99937612px;stroke-linecap:butt;stroke-linejoin:miter;stroke-opacity:1"
     d="m 763.61309,745.94033 0.7125,-1.51297 0.53438,-0.97898 0.9797,-0.623 1.9594,0 1.51407,-0.089 1.15783,0.089 0.62345,0.089 0.62343,1.42398 -0.35624,1.06798 -1.42502,0.62299 -0.89064,0.44499 -1.33595,0.356 -2.04846,0 -1.9594,-0.17799 -0.0891,-0.712 z"
     id="path2842"
     inkscape:connector-curvature="0" />
  <path
     style="fill:#00008b;fill-opacity:1;stroke:#000000;stroke-width:0.99937612px;stroke-linecap:butt;stroke-linejoin:miter;stroke-opacity:1"
     d="m 679.89342,729.56458 -0.26719,-1.77997 0.35626,-2.22497 0.17812,-2.66996 c 0,0 0.62345,-0.71199 0.71252,-1.15699 0.0891,-0.44499 -0.0891,-0.88998 0.17812,-1.33497 0.26719,-0.445 1.42502,-1.15699 1.42502,-1.15699 0,0 0.7125,0.089 1.06875,0.089 0.35626,0 1.42502,0.88998 1.42502,0.88998 l 0.35625,2.04697 c 0,0 0.17813,0.712 0.17813,1.42398 0,0.71199 0.0891,2.40297 0,2.84796 -0.0891,0.445 -0.89064,1.77998 -0.89064,1.77998 l -1.15782,1.24598 c 0,0 -0.53438,0.44499 -1.06876,0.53399 -0.53438,0.089 -1.60314,0 -1.60314,0 l -0.89064,-0.53399 z"
     id="path2844"
     inkscape:connector-curvature="0" />
  <path
     style="fill:#00008b;fill-opacity:1;stroke:#000000;stroke-width:0.99937612px;stroke-linecap:butt;stroke-linejoin:miter;stroke-opacity:1"
     d="m 694.38456,750.77281 1.51146,-2.64313 c 0,0 1.13358,-1.25864 1.6374,-1.25864 0.50382,0 1.76337,0 1.76337,0 l 2.01528,1.63622 0.50381,1.25864 2.26719,0.75517 3.65269,0.37759 2.51909,1.00691 3.14887,2.64312 3.52674,2.64313 3.14886,2.64313 3.14887,1.76208 3.65269,0.37759 c 0,0 3.02292,0.12586 3.52674,-0.25173 0.50382,-0.37758 1.38551,-1.13277 2.01527,-1.38449 0.62978,-0.25173 3.14887,-1.0069 3.14887,-1.0069 l 3.27483,-0.37759 3.02291,-0.62932 4.78629,-0.37759 4.28245,-0.62931 2.77101,-0.62932 2.26718,-1.38449 2.26719,-1.25864 2.39313,0 2.64505,1.00691 1.63743,1.0069 1.25954,2.39141 0.25191,3.27243 -0.12595,3.39831 -0.62978,3.3983 -1.25954,4.02762 -1.00765,2.64313 -0.25191,3.65003 0.12595,4.15349 0.25193,2.51726 -0.62979,1.13277 -2.39313,0.62931 -1.51147,0.12586 -2.01527,1.63623 -1.3855,1.88794 -1.25954,1.88795 -0.37787,2.51728 0.62977,1.88794 1.76337,0.75517 0.88168,1.00691 0,1.0069 -0.12596,1.51037 -1.63741,0.88104 -0.50382,1.63622 0,2.13967 c 0,0 0,1.25863 0,2.01381 0,0.75518 -0.50382,1.63622 -0.50382,1.63622 l -0.2519,0.62932 -1.63741,0.12586 -1.76337,-0.12586 c 0,0 -0.62977,-1.76209 -0.50382,-2.26554 0.12595,-0.50346 -0.25191,-1.88795 -0.50382,-2.3914 -0.25191,-0.50345 -0.62977,-1.0069 -1.25954,-1.0069 -0.62978,0 -1.88932,0 -1.88932,0 l -1.38552,0.37758 -2.26718,1.63622 -1.51145,1.13278 -2.26719,2.89484 -2.01528,1.76209 -1.63741,3.90176 -1.00764,2.01381 -2.01527,1.0069 -2.39314,-0.12586 -2.77101,-1.13277 -2.01528,-1.63622 -1.13359,-0.88104 -1.00764,0 c 0,0 -0.88168,0 -1.3855,0 -0.50382,0 -1.3855,0.12586 -1.3855,0.12586 l -0.88169,-0.25172 c 0,0 -1.00763,0 -1.3855,-0.62932 -0.37786,-0.62932 -0.75572,-1.00691 -0.75572,-1.00691 l -1.51145,-0.88104 c 0,0 0.12594,0.12587 -1.1336,-0.75518 -1.25955,-0.88104 -2.77101,-1.76208 -2.77101,-1.76208 0,0 -1.13359,-0.75518 -1.25954,-1.25863 -0.12596,-0.50346 -2.14124,-3.14658 -2.14124,-3.14658 l -2.01527,-3.90176 -1.00764,-3.14658 -0.25192,-3.14658 0.12596,-2.89484 -0.75573,-2.13969 -1.51146,-1.51036 c 0,0 -1.6374,-0.62932 -1.88931,-1.25862 -0.25191,-0.62932 -0.50382,-1.88796 -0.50382,-1.88796 l 0.88168,-1.25862 c 0,0 0.75573,-0.62932 1.51145,-0.88105 0.75574,-0.25172 1.00764,-0.50345 1.00764,-0.50345 0,0 0.25191,-0.37759 0.25191,-1.13276 0,-0.75519 0,-1.76209 0,-1.76209 l -1.00763,-2.26553 c 0,0 -0.25192,-1.25864 -0.37786,-1.76209 -0.12596,-0.50345 -2.39315,-4.65694 -2.39315,-4.65694 l -2.64505,-2.01381 -2.01528,-2.26554 -1.13358,-1.38449 -0.62978,-3.65003 0.12596,-4.40521 0.12595,-5.03452 -0.12595,-2.51726 z"
     id="path2846"
     inkscape:connector-curvature="0" />
  <path
     style="fill:#00008b;fill-opacity:1;stroke:#000000;stroke-width:0.99937612px;stroke-linecap:butt;stroke-linejoin:miter;stroke-opacity:1"
     d="m 741.61758,817.732 -1.25954,-1.13277 -0.25191,-1.76209 0.37787,-1.88794 0.50382,-0.75517 1.51145,0.37758 0.75573,1.38449 0,1.63623 -0.25191,1.25863 -0.62977,1.00691 -0.75574,-0.12587 z"
     id="path2848"
     inkscape:connector-curvature="0" />
  <g
     id="g4272">
    <polygon
       transform="matrix(3.9405662,0,0,3.9405662,-437.11912,-52.260427)"
       style="fill:#ee7913"
       id="polygon3"
       points="176,183.433 195,202.37 195,180 216.513,180 198.306,162 176,162 " />
    <polygon
       transform="matrix(3.9405662,0,0,3.9405662,-437.11912,-52.260427)"
       style="fill:url(#SVGID_4_-5)"
       id="polygon31"
       points="240.782,248 264,248 264,226.946 225.617,189 204,189 204,211.34 " />
    <polygon
       transform="matrix(3.9405662,0,0,3.9405662,-437.11912,-52.260427)"
       style="fill:#f0e64a"
       id="polygon33"
       points="195,202.37 204,211.34 204,189 225.617,189 216.513,180 195,180 " />
    <path
       style="fill:url(#SVGID_5_-6)"
       inkscape:connector-curvature="0"
       id="path40"
       d="m 343.31804,802.30654 c -12.84243,2.95542 -26.19689,4.55922 -39.97323,4.55922 -98.53387,0 -182.33394,-81.02593 -182.33394,-186.08142 0,-105.05549 82.87798,-184.29634 182.33394,-184.29634 99.45595,0 178.64951,79.2369 178.64951,184.29634 0,17.08631 -2.1279,33.52634 -6.06453,49.09947 l 91.20035,91.18469 C 590.6435,719.86987 603.79736,671.96835 603.79736,620.08291 603.79736,458.16508 474.58212,336.9296 301.50062,336.9296 129.21118,336.9296 0,457.36908 0,620.08291 c 0,163.50988 129.21509,286.3452 301.50062,286.3452 44.4773,0 86.04239,-8.18062 123.27668,-23.06809 z" />
    <path
       sodipodi:nodetypes="ccccccc"
       inkscape:connector-curvature="0"
       style="fill:#ffffff;fill-opacity:0.17254902"
       id="polygon4174"
       d="M 256.42042,586.1113 603.19039,925 l 0,-82.96738 L 451.94024,692.50659 416.06729,657.04149 344.3214,586.1113 Z" />
  </g>
</svg>
